<?xml version="1.0" encoding="utf-8"?>
<!-- Generator: Adobe Adobe Illustrator 28.1.0, SVG Export Plug-In . SVG Version: 6.00 Build 0)  -->
<svg version="1.1" id="Layer_1" xmlns="http://www.w3.org/2000/svg" xmlns:xlink="http://www.w3.org/1999/xlink" x="0px" y="0px"
	 viewBox="0 0 20 16" style="enable-background:new 0 0 20 16;" xml:space="preserve">
<path d="M10,0C8.3,0,7,1.3,7,3v5c0,1.7,1.3,3,3,3s3-1.3,3-3V3C13,1.3,11.7,0,10,0z M6,6.8C6,6.3,5.7,6,5.2,6S4.5,6.3,4.5,6.8V8
	c0,2.8,2.1,5.1,4.8,5.4v1.1H7.8c-0.4,0-0.8,0.3-0.8,0.8S7.3,16,7.8,16H10h2.2c0.4,0,0.8-0.3,0.8-0.8s-0.3-0.8-0.8-0.8h-1.5v-1.1
	c2.7-0.4,4.8-2.7,4.8-5.4V6.8c0-0.4-0.3-0.8-0.8-0.8S14,6.3,14,6.8V8c0,2.2-1.8,4-4,4s-4-1.8-4-4V6.8z"/>
</svg>
