<?xml version="1.0" encoding="utf-8"?>
<!-- Generator: Adobe Adobe Illustrator 28.1.0, SVG Export Plug-In . SVG Version: 6.00 Build 0)  -->
<svg version="1.1" id="Layer_1" xmlns="http://www.w3.org/2000/svg" xmlns:xlink="http://www.w3.org/1999/xlink" x="0px" y="0px"
	 viewBox="0 0 15.5 6.6" style="enable-background:new 0 0 15.5 6.6;" xml:space="preserve">
<path d="M13.2,6.5c0.4,0.2,0.9,0,1.2-0.4l1.1-1.9c0.2-0.4,0.1-0.8-0.2-1.1c-4.2-4.2-10.9-4.2-15,0c-0.3,0.3-0.4,0.8-0.2,1.1l1.1,1.9
	c0.2,0.4,0.7,0.6,1.2,0.4l2.3-0.9C5,5.4,5.2,5,5.2,4.6L5,3.1c1.7-0.6,3.7-0.6,5.4,0l-0.2,1.5c0,0.4,0.2,0.8,0.6,1L13.2,6.5L13.2,6.5
	z"/>
</svg>
