<?xml version="1.0" encoding="utf-8"?>
<!-- Generator: Adobe Adobe Illustrator 28.1.0, SVG Export Plug-In . SVG Version: 6.00 Build 0)  -->
<svg version="1.1" id="Layer_1" xmlns="http://www.w3.org/2000/svg" xmlns:xlink="http://www.w3.org/1999/xlink" x="0px" y="0px"
	 viewBox="0 0 100 100" style="enable-background:new 0 0 100 100;" xml:space="preserve">
<path d="M42,92V8c0-4.4,3.6-8,8-8h0c4.4,0,8,3.6,8,8v84c0,4.4-3.6,8-8,8h0C45.6,100,42,96.4,42,92z"/>
<path d="M92,58H8c-4.4,0-8-3.6-8-8v0c0-4.4,3.6-8,8-8h84c4.4,0,8,3.6,8,8v0C100,54.4,96.4,58,92,58z"/>
</svg>
