<?xml version="1.0" encoding="utf-8"?>
<!-- Generator: Adobe Adobe Illustrator 28.1.0, SVG Export Plug-In . SVG Version: 6.00 Build 0)  -->
<svg version="1.1" id="Layer_1" xmlns="http://www.w3.org/2000/svg" xmlns:xlink="http://www.w3.org/1999/xlink" x="0px" y="0px"
	 viewBox="0 0 100 100" style="enable-background:new 0 0 100 100;" xml:space="preserve">
<g>
	<path d="M37.75,88V12c0-6.63,5.37-12,12-12h0.5c6.63,0,12,5.37,12,12v76c0,6.63-5.37,12-12,12h-0.5C43.12,100,37.75,94.63,37.75,88
		z"/>
	<path d="M12,37.75h76c6.63,0,12,5.37,12,12v0.5c0,6.63-5.37,12-12,12H12c-6.63,0-12-5.37-12-12v-0.5C0,43.12,5.37,37.75,12,37.75z"
		/>
</g>
</svg>
