<?xml version="1.0" encoding="utf-8"?>
<!-- Generator: Adobe Adobe Illustrator 28.1.0, SVG Export Plug-In . SVG Version: 6.00 Build 0)  -->
<svg version="1.1" id="Layer_1" xmlns="http://www.w3.org/2000/svg" xmlns:xlink="http://www.w3.org/1999/xlink" x="0px" y="0px"
	 viewBox="0 0 100 100" style="enable-background:new 0 0 100 100;" xml:space="preserve">
<path d="M0,51v-2c0-5,4-9,9-9h82c5,0,9,4,9,9v2c0,5-4,9-9,9H9C4,60,0,56,0,51z"/>
<path d="M51,100h-2c-5,0-9-4-9-9V9c0-5,4-9,9-9h2c5,0,9,4,9,9v82C60,96,56,100,51,100z"/>
</svg>
